<?xml version="1.0" encoding="utf-8"?>
<svg width="180" height="42" viewBox="0 0 180 42" fill="none" xmlns="http://www.w3.org/2000/svg">
  <g>
    <path d="M0 0.36529L5.41832 0.36529L5.41832 3.14337C6.66647 1.49874 8.30533 0 11.0511 0C13.5458 0 15.4347 1.13289 16.4334 3.10689C18.1089 1.09642 20.105 0 22.7069 0C26.7359 0 29.1589 2.48518 29.1589 7.20134L29.1589 19.9583L23.7406 19.9583L23.7406 9.02834C23.7406 6.39671 22.5997 5.04442 20.568 5.04442C18.5368 5.04442 17.2886 6.39671 17.2886 9.02834L17.2886 19.9583L11.8703 19.9583L11.8703 9.02834C11.8703 6.39671 10.7294 5.04442 8.69767 5.04442C6.66647 5.04442 5.41832 6.39671 5.41832 9.02834L5.41832 19.9583L0 19.9583L0 0.36529L0 0.36529Z" fill="#FFFFFF" fill-rule="evenodd" transform="translate(0 7.278)" />
    <path d="M15.3286 10.2712L15.3286 10.1977C15.3286 7.31076 13.2968 4.78745 10.3026 4.78745C7.20108 4.78745 5.34719 7.23726 5.34719 10.1248L5.34719 10.1977C5.34719 13.0858 7.37892 15.6074 10.3732 15.6074C13.4747 15.6074 15.3286 13.1593 15.3286 10.2712M0 10.2712L0 10.1977C0 4.56861 4.42078 0 10.3732 0C16.2911 0 20.6763 4.4951 20.6763 10.1248L20.6763 10.1977C20.6763 15.8274 16.255 20.3965 10.3026 20.3965C4.38467 20.3965 0 15.8998 0 10.2712" fill="#FFFFFF" fill-rule="evenodd" transform="translate(31.121 7.279)" />
    <g transform="translate(53.353 0.352)">
      <path d="M14.7223 16.9238L14.7223 16.8514C14.7223 13.5969 12.6199 11.4411 10.0886 11.4411C7.55731 11.4411 5.41886 13.561 5.41886 16.8514L5.41886 16.9238C5.41886 20.1777 7.55731 22.3341 10.0886 22.3341C12.6199 22.3341 14.7223 20.1777 14.7223 16.9238M0 16.9238L0 16.8514C0 10.3077 4.17072 6.72608 8.6982 6.72608C11.5852 6.72608 13.368 8.07837 14.6517 9.65005L14.6517 0L20.07 0L20.07 26.6838L14.6517 26.6838L14.6517 23.8693C13.3319 25.6968 11.5146 27.0491 8.6982 27.0491C4.24239 27.0491 0 23.4669 0 16.9238" fill="#FFFFFF" fill-rule="evenodd" transform="translate(0.435 0.2)" />
    </g>
    <path d="M0 0.373868L5.41832 0.373868L5.41832 4.32187C6.52365 1.61618 8.30533 -0.138422 11.5141 0.0085783L11.5141 5.82005L11.229 5.82005C7.62898 5.82005 5.41832 8.04992 5.41832 12.7285L5.41832 19.9669L0 19.9669L0 0.373868Z" fill="#FFFFFF" fill-rule="evenodd" transform="translate(96.821 7.27)" />
    <path d="M0 0.36529L5.41832 0.36529L5.41832 3.14337C6.66647 1.49874 8.2703 0 11.0145 0C15.1146 0 17.5031 2.77753 17.5031 7.27374L17.5031 19.9583L12.0848 19.9583L12.0848 9.02834C12.0848 6.39671 10.8722 5.04442 8.80491 5.04442C6.73707 5.04442 5.41832 6.39671 5.41832 9.02834L5.41832 19.9583L0 19.9583L0 0.36529Z" fill="#FFFFFF" fill-rule="evenodd" transform="translate(110.564 7.278)" />
    <path d="M0 4.93389L5.70341 4.93389L5.70341 0L0 0L0 4.93389Z" fill="#FFFFFF" fill-rule="evenodd" transform="translate(130.542 0.553)" />
    <path d="M0 19.593L5.41832 19.593L5.41832 0L0 0L0 19.593Z" fill="#FFFFFF" fill-rule="evenodd" transform="translate(130.685 7.644)" />
    <path d="M9.4473 4.45918C11.5917 4.45918 12.9799 5.94576 13.4052 8.18724L5.39946 8.18724C5.91682 5.91537 7.33419 4.45918 9.4473 4.45918M18.7507 10.6365C18.7507 5.08034 15.8281 0 9.4473 0C3.88617 0 0 4.60563 0 10.1977L0 10.2718C0 16.2662 4.24239 20.3965 9.98138 20.3965C13.4396 20.3965 16.0065 19.0083 17.7882 16.7414L14.6878 13.9269C13.1901 15.3516 11.8714 15.9368 10.0531 15.9368C7.62898 15.9368 5.91791 14.6215 5.38329 12.0988L18.6801 12.0988C18.7157 11.5876 18.7507 11.0753 18.7507 10.6365" fill="#FFFFFF" fill-rule="evenodd" transform="translate(75.91 7.278)" />
    <path d="M16.6112 3.91153L16.6112 0L0.320663 0L0.320663 4.49621L9.87413 4.49621L0 15.6815L0 19.593L2.70377 19.593L16.6112 3.91153Z" fill="#FFFFFF" fill-rule="evenodd" transform="translate(138.421 7.644)" />
    <path d="M0.190781 2.00992C0.126114 2.00992 0.0635986 2.00495 0 2.00329L3.51161 5.95129C5.3224 5.35334 6.78557 4.26521 7.92593 2.81455L4.82552 0C3.32785 1.42524 2.00909 2.00992 0.190781 2.00992" fill="#FFFFFF" fill-rule="evenodd" transform="translate(165.398 21.205)" />
    <path d="M4.52695 8.18724C5.04378 5.91537 6.46167 4.45918 8.57478 4.45918C10.7192 4.45918 12.1069 5.94521 12.5321 8.18724L4.52695 8.18724ZM8.57478 0C4.56844 0 1.44107 2.39621 0 5.82363L5.58162 12.0988L17.8076 12.0988C17.8426 11.5876 17.8782 11.0753 17.8782 10.6365C17.8782 5.08034 14.9556 0 8.57478 0L8.57478 0Z" fill="#FFFFFF" fill-rule="evenodd" transform="translate(156.408 7.279)" />
    <path d="M0 4.50284L5.20491 4.50284L5.20491 0L0 0L0 4.50284Z" fill="#FEC14B" fill-rule="evenodd" transform="translate(149.827 22.74)" />
    <path d="M0 6.19389L0 0L1.38395 0L1.38395 2.51613L3.77515 2.51613L3.77515 0L5.1591 0L5.1591 6.19389L3.77515 6.19389L3.77515 3.6214L1.38395 3.6214L1.38395 6.19389L0 6.19389Z" fill="#FFFFFF" fill-rule="evenodd" transform="translate(0 35.517)" />
    <path d="M2.98886 5.28205C4.06617 5.28205 4.56952 4.33871 4.56952 3.18537C4.56952 2.03202 4.05054 1.08868 2.98078 1.08868C1.90347 1.08868 1.40012 2.03202 1.40012 3.18537C1.40012 4.33871 1.9191 5.28205 2.98886 5.28205M2.98886 0C4.93168 0 5.96964 1.37053 5.96964 3.18537C5.96964 4.98363 4.93922 6.37074 2.98078 6.37074C1.0385 6.37074 0 5.00021 0 3.18537C0 1.3871 1.03042 0 2.98886 0" fill="#FFFFFF" fill-rule="evenodd" transform="translate(7.293 35.429)" />
    <path d="M6.49617 0L6.49617 6.19389L5.12784 6.19389L5.12784 2.10497L5.11222 2.10497L3.81395 6.19389L2.65042 6.19389L1.35269 2.121L1.33707 2.121L1.33707 6.19389L0 6.19389L0 0L1.86359 0L3.25617 4.46029L3.2718 4.46029L4.65575 0L6.49617 0Z" fill="#FFFFFF" fill-rule="evenodd" transform="translate(15.396 35.517)" />
    <path d="M0 6.19389L0 0L4.22353 0L4.22353 1.09697L1.37641 1.09697L1.37641 2.52442L3.84575 2.52442L3.84575 3.61311L1.37641 3.61311L1.37641 5.09692L4.2785 5.09692L4.2785 6.19389L0 6.19389Z" fill="#FFFFFF" fill-rule="evenodd" transform="translate(24.262 35.517)" />
    <path d="M0 6.19389L0 0L3.73581 0L3.73581 0.443211L0.487724 0.443211L0.487724 2.84716L3.35048 2.84716L3.35048 3.29037L0.487724 3.29037L0.487724 5.75068L3.79078 5.75068L3.79078 6.19389L0 6.19389Z" fill="#FFFFFF" fill-rule="evenodd" transform="translate(34.276 35.517)" />
    <path d="M5.87479 0L5.87479 6.19389L5.38707 6.19389L5.38707 0.693554L5.37144 0.693554L3.16132 6.19389L2.70539 6.19389L0.49527 0.709579L0.479641 0.709579L0.479641 6.19389L0 6.19389L0 0L0.715687 0L2.93335 5.51637L2.94898 5.51637L5.1591 0L5.87479 0Z" fill="#FFFFFF" fill-rule="evenodd" transform="translate(40.428 35.517)" />
    <path d="M2.61108 3.04058C3.13006 3.04058 3.56281 2.74216 3.56281 2.07292C3.56281 1.40368 3.13006 1.09697 2.61108 1.09697L1.38449 1.09697L1.38449 3.04058L2.61108 3.04058ZM2.74473 0C3.96377 0 4.96293 0.734447 4.96293 2.04861C4.96293 3.3716 3.98748 4.13755 2.72102 4.13755L1.38449 4.13755L1.38449 6.19389L0 6.19389L0 0L2.74473 0Z" fill="#FFFFFF" fill-rule="evenodd" transform="translate(48.846 35.517)" />
    <path d="M2.98886 5.28205C4.06617 5.28205 4.56952 4.33871 4.56952 3.18537C4.56952 2.03202 4.05054 1.08868 2.98078 1.08868C1.90347 1.08868 1.40012 2.03202 1.40012 3.18537C1.40012 4.33871 1.9191 5.28205 2.98886 5.28205M2.98886 0C4.93168 0 5.96964 1.37053 5.96964 3.18537C5.96964 4.98363 4.93922 6.37074 2.98078 6.37074C1.0385 6.37074 0 5.00021 0 3.18537C0 1.3871 1.03042 0 2.98886 0" fill="#FFFFFF" fill-rule="evenodd" transform="translate(55.587 35.429)" />
    <path d="M8.51767 0L6.81898 6.19389L5.3321 6.19389L4.28659 1.97621L4.27042 1.97621L3.21682 6.19389L1.69922 6.19389L0 0L1.44754 0L2.53293 4.44371L2.54856 4.44371L3.55473 0L5.04161 0L6.04832 4.39563L6.06395 4.39563L7.12563 0L8.51767 0Z" fill="#FFFFFF" fill-rule="evenodd" transform="translate(63.069 35.517)" />
    <path d="M0 6.19389L0 0L4.22353 0L4.22353 1.09697L1.3764 1.09697L1.3764 2.52442L3.84575 2.52442L3.84575 3.61311L1.3764 3.61311L1.3764 5.09692L4.2785 5.09692L4.2785 6.19389L0 6.19389Z" fill="#FFFFFF" fill-rule="evenodd" transform="translate(73.477 35.517)" />
    <path d="M1.38449 2.71011L2.67413 2.71011C3.10689 2.71011 3.46851 2.45147 3.46851 1.90326C3.46851 1.34676 3.10689 1.09697 2.67413 1.09697L1.38449 1.09697L1.38449 2.71011ZM2.4618 3.7905L1.38449 3.7905L1.38449 6.19389L0 6.19389L0 0L2.8315 0C4.0112 0 4.86054 0.65321 4.86054 1.80655C4.86054 2.62113 4.4197 3.19366 3.75952 3.46776L5.03353 6.19389L3.51539 6.19389L2.4618 3.7905Z" fill="#FFFFFF" fill-rule="evenodd" transform="translate(79.841 35.517)" />
    <path d="M5.87479 0L5.87479 6.19389L5.3876 6.19389L5.3876 0.693554L5.37144 0.693554L3.16132 6.19389L2.70539 6.19389L0.49527 0.709579L0.479637 0.709579L0.479637 6.19389L0 6.19389L0 0L0.715691 0L2.93389 5.51637L2.94898 5.51637L5.1591 0L5.87479 0Z" fill="#FFFFFF" fill-rule="evenodd" transform="translate(86.992 35.517)" />
    <path d="M0 6.19389L0 0L3.73581 0L3.73581 0.443211L0.487183 0.443211L0.487183 2.84716L3.34994 2.84716L3.34994 3.29037L0.487183 3.29037L0.487183 5.75068L3.79078 5.75068L3.79078 6.19389L0 6.19389Z" fill="#FFFFFF" fill-rule="evenodd" transform="translate(95.583 35.517)" />
    <path d="M4.71072 0L4.71072 6.19389L4.2785 6.19389L0.49527 0.814579L0.479637 0.814579L0.479637 6.19389L0 6.19389L0 0L0.503357 0L4.21545 5.29089L4.23108 5.29089L4.23108 0L4.71072 0Z" fill="#FFFFFF" fill-rule="evenodd" transform="translate(101.735 35.517)" />
    <path d="M2.21767 6.19389L2.21767 0.443211L0 0.443211L0 0L4.92359 0L4.92359 0.443211L2.70539 0.443211L2.70539 6.19389L2.21767 6.19389Z" fill="#FFFFFF" fill-rule="evenodd" transform="translate(108.555 35.517)" />
    <path d="M0.237129 1.03066C0.257607 1.1025 0.275925 1.134 0.315269 1.16495C0.372398 1.21358 0.464554 1.239 0.570717 1.239C0.73671 1.239 0.841255 1.16273 0.841255 1.04171C0.841255 0.957157 0.786285 0.903 0.671494 0.871498L0.409042 0.801868C0.269997 0.76429 0.200478 0.726158 0.151436 0.65929C0.0975418 0.589657 0.0711365 0.508423 0.0711365 0.417789C0.0711365 0.167446 0.264069 0 0.55455 0C0.701675 0 0.832634 0.0419998 0.931259 0.121578C0.99054 0.171867 1.02126 0.21608 1.04605 0.302288L0.812157 0.360867C0.775513 0.254211 0.69413 0.203369 0.556709 0.203369C0.41497 0.203369 0.322815 0.27079 0.322815 0.375237C0.322815 0.457581 0.384254 0.512291 0.513596 0.546001L0.746948 0.60458C0.894608 0.644367 0.982452 0.69521 1.03527 0.777C1.07892 0.84166 1.10155 0.91737 1.10155 1.00358C1.10155 1.2705 0.885986 1.44237 0.556709 1.44237C0.386406 1.44237 0.24575 1.39816 0.136345 1.31029C0.068985 1.25337 0.0344925 1.197 0 1.08371L0.237129 1.03066Z" fill="#FFFFFF" fill-rule="evenodd" transform="translate(114.525 35.429)" />
    <path d="M1.08755 1.40037L1.08755 0.17408L0.708679 1.40037L0.57988 1.40037L0.200478 0.17408L0.200478 1.40037L0 1.40037L0 0L0.384789 0L0.669884 0.903L0.952278 0L1.33922 0L1.33922 1.40037L1.08755 1.40037Z" fill="#FFFFFF" fill-rule="evenodd" transform="translate(115.839 35.45)" />
    <path d="M1.53917 0.803526C1.44592 0.563684 1.33275 0.487974 1.08701 0.487974C0.861191 0.487974 0.732391 0.575842 0.732391 0.723395C0.732391 0.87979 0.826172 0.947763 1.10641 1.00358C1.49658 1.08758 1.65665 1.13897 1.78868 1.23126C2.00694 1.38324 2.12389 1.60705 2.12389 1.86292C2.12389 2.14255 1.97623 2.41832 1.74234 2.57416C1.57419 2.68634 1.32898 2.74603 1.05629 2.74603C0.751801 2.74603 0.506592 2.67032 0.311493 2.51834C0.147659 2.38626 0.0738373 2.26634 0 2.00661L0.56102 1.87453C0.634857 2.13039 0.798676 2.24645 1.08701 2.24645C1.3446 2.24645 1.50467 2.13868 1.50467 1.96682C1.50467 1.80655 1.39905 1.73526 1.05252 1.66287C0.764191 1.60318 0.596054 1.54682 0.451614 1.45508C0.248978 1.33129 0.135803 1.11134 0.135803 0.847737C0.135803 0.599605 0.225815 0.391816 0.401505 0.232105C0.576645 0.0723948 0.790604 0 1.08324 0C1.36401 0 1.59036 0.0679736 1.7655 0.203921C1.90186 0.308368 1.97246 0.412263 2.05383 0.627789L1.53917 0.803526Z" fill="#FFFFFF" fill-rule="evenodd" transform="translate(174.287 7.643)" />
    <path d="M0.510361 0.491842L0.510361 2.66645L0 2.66645L0 0L0.947418 0L1.40282 1.59489L1.88676 0L2.8342 0L2.8342 2.66645L2.22197 2.66645L2.22197 0.491842L1.56718 2.66645L1.15005 2.66645L0.510361 0.491842Z" fill="#FFFFFF" fill-rule="evenodd" transform="translate(176.811 7.683)" />
  </g>
</svg>